<svg xmlns="http://www.w3.org/2000/svg" viewBox="0 0 101.79 130.86"><defs><style>.cls-1{fill:#fff;}</style></defs><g id="Layer_2" data-name="Layer 2"><g id="Layer_1-2" data-name="Layer 1"><rect class="cls-1" x="30.91" y="56.44" width="43" height="74.41" rx="21.5" transform="translate(104.83 187.3) rotate(180)"/><rect class="cls-1" x="15.56" y="-4.02" width="43" height="107.15" rx="21.5" transform="translate(93.51 74.92) rotate(150.99)"/><path class="cls-1" d="M83.23.43A27.66,27.66,0,0,1,88.6,1.8a20.68,20.68,0,0,1,9.76,7.92,20.16,20.16,0,0,1,3.3,9.07A21,21,0,0,1,99,31.6Q90.78,46.36,82.62,61.16c-.36.65-.67,1.36-1.61,1.35s-1.19-.72-1.54-1.35Q71.29,46.37,63.12,31.6a20.85,20.85,0,0,1-2.81-11A20.84,20.84,0,0,1,78.52.52l.34-.09ZM81.07,10.88A10.24,10.24,0,1,0,91.3,21.18,10.21,10.21,0,0,0,81.07,10.88Z"/></g></g></svg>